# xmcd
#
# Track frame offsets: 
#        150
#        16082
#        32135
#        50932
#        71412
#        88232
#        103812
#        119987
#        139825
#        153842
#        171657
#        190199
#
# Disc length: 3142 seconds
#
# Revision: 1
# Processed by: cddbd v1.5.2PL0 Copyright (c) Steve Scherf et al.
# Submitted via: ExactAudioCopyFreeDBPlugin 1.0
#
DISCID=b20c440c
DTITLE=Bow Wow - Wanted
DYEAR=2005
DGENRE=Rap
TTITLE0=Do You
TTITLE1=Big Dreams
TTITLE2=Let Me Hold You (feat. Omarion)
TTITLE3=Fresh Azimiz (feat. J-Kwon and Jermaine Dipri)
TTITLE4=Caviar (feat. Snoop Dogg)
TTITLE5=Like You (feat. Ciara)
TTITLE6=B.O.W
TTITLE7=Go (feat. Jermaine Dupri)
TTITLE8=Do What It Do (feat. Jermaine Dupri)
TTITLE9=Is That You (P.Y.T.)
TTITLE10=Mo Money (feat. T.Waters)
TTITLE11=To My Mama (feat. Amerie) [Bonus Track]
EXTD=(PARENTAL ADVISORY) ID3G:  15 YEAR: 2005
EXTT0=
EXTT1=
EXTT2=
EXTT3=
EXTT4=
EXTT5=
EXTT6=
EXTT7=
EXTT8=
EXTT9=
EXTT10=
EXTT11=
PLAYORDER=
